<?xml version="1.0" encoding="UTF-8"?>
<svg xmlns="http://www.w3.org/2000/svg" xmlns:xlink="http://www.w3.org/1999/xlink" viewBox="0 0 96 96" width="96px" height="96px">
<g id="surface76993931">
<path style=" stroke:none;fill-rule:nonzero;fill:rgb(100%,100%,100%);fill-opacity:1;" d="M 16 12 C 11.601562 12 8 15.601562 8 20 L 8 68 L 20 56 L 56 56 C 60.398438 56 64 52.398438 64 48 L 64 20 C 64 15.601562 60.398438 12 56 12 Z M 72 32 L 72 48 C 72 56.824219 64.824219 64 56 64 L 32 64 L 32 68 C 32 72.398438 35.601562 76 40 76 L 76 76 L 88 88 L 88 40 C 88 35.601562 84.398438 32 80 32 Z M 72 32 "/>
</g>
</svg>
